<?xml version="1.0" encoding="UTF-8" standalone="no"?><svg xmlns="http://www.w3.org/2000/svg" xmlns:xlink="http://www.w3.org/1999/xlink" fill="#000000" height="515.6" preserveAspectRatio="xMidYMid meet" version="1" viewBox="-1.9 0.0 553.2 515.6" width="553.2" zoomAndPan="magnify"><g id="change1_1"><path d="M124.55,515.58c-7.15,0-14.2-1.92-20.5-5.68c-9.23-5.5-15.77-14.26-18.41-24.67L40.15,305.96 c-2.64-10.42-1.07-21.24,4.43-30.47c5.5-9.23,14.26-15.77,24.67-18.41l5.15-1.31c21.5-5.46,43.43,7.6,48.88,29.1l45.48,179.28 c2.64,10.42,1.07,21.24-4.43,30.47c-5.5,9.23-14.26,15.77-24.67,18.41l-5.15,1.31C131.21,515.17,127.87,515.58,124.55,515.58z M84.29,269.53c-2.05,0-4.13,0.25-6.2,0.78l-5.15,1.31c-6.53,1.66-12.03,5.76-15.47,11.55c-3.45,5.79-4.43,12.58-2.78,19.11 l45.48,179.28c1.66,6.53,5.76,12.03,11.55,15.47c5.79,3.45,12.57,4.43,19.11,2.78l5.15-1.31c6.53-1.66,12.03-5.76,15.47-11.55 c3.45-5.79,4.43-12.58,2.78-19.11l-45.48-179.28C105.85,277.15,95.55,269.53,84.29,269.53z" fill="#554a3d"/></g><g id="change1_5"><path d="M77.52,493.77c-24.68,0-47.23-16.68-53.57-41.68L1.72,364.49c-3.63-14.31-1.47-29.17,6.08-41.86 c7.55-12.68,19.59-21.67,33.9-25.3l3.76-0.95c4.02-1.02,8.1,1.41,9.11,5.42L100.28,482c1.02,4.01-1.41,8.09-5.42,9.11l-3.76,0.96 C86.56,493.22,82,493.77,77.52,493.77z M41.91,312.92c-8.9,3.11-16.35,9.19-21.23,17.39c-5.5,9.24-7.07,20.07-4.43,30.49 l22.22,87.61c5.16,20.34,25.04,33.12,45.38,29.86L41.91,312.92z" fill="#554a3d"/></g><g id="change1_3"><path d="M424.75,515.57c-3.27,0-6.58-0.4-9.89-1.24l-5.15-1.31c-10.41-2.64-19.18-9.18-24.67-18.41 c-5.5-9.23-7.07-20.05-4.43-30.47l45.48-179.28c2.64-10.41,9.18-19.18,18.41-24.67c9.23-5.49,20.05-7.07,30.47-4.42l5.15,1.31 c10.41,2.64,19.18,9.18,24.67,18.41c5.5,9.23,7.07,20.05,4.43,30.47l-45.48,179.28C459.13,503.42,442.72,515.57,424.75,515.57z M465.04,269.52c-4.48,0-8.9,1.21-12.86,3.56c-5.79,3.45-9.89,8.94-11.55,15.47l-45.48,179.28c-1.66,6.53-0.67,13.32,2.78,19.11 c3.45,5.79,8.94,9.89,15.47,11.55l5.15,1.31c13.48,3.42,27.23-4.77,30.65-18.25l45.48-179.28c1.66-6.53,0.67-13.32-2.78-19.11 c-3.45-5.79-8.94-9.89-15.47-11.55l-5.15-1.31C469.22,269.78,467.12,269.52,465.04,269.52z" fill="#554a3d"/></g><g id="change1_6"><path d="M471.86,493.77c-4.49,0-9.04-0.55-13.58-1.7l-3.76-0.96c-4.01-1.02-6.44-5.1-5.42-9.11l45.71-180.19 c1.02-4.01,5.1-6.44,9.11-5.42l3.76,0.95c14.31,3.63,26.35,12.61,33.9,25.3c7.55,12.68,9.71,27.55,6.08,41.86l-22.22,87.61 C519.09,477.09,496.54,493.77,471.86,493.77z M465.51,478.26c20.33,3.27,40.22-9.52,45.38-29.86l22.22-87.61 c5.16-20.34-6.23-41.06-25.66-47.88L465.51,478.26z" fill="#554a3d"/></g><g id="change1_4"><path d="M502.07,311.15c-4.14,0-7.5-3.36-7.5-7.5v-68.77c0-58.73-22.87-113.95-64.4-155.48 C388.64,37.87,333.42,15,274.69,15S160.73,37.87,119.2,79.4c-41.53,41.53-64.4,96.75-64.4,155.48v68.77c0,4.14-3.36,7.5-7.5,7.5 s-7.5-3.36-7.5-7.5v-68.77c0-62.74,24.43-121.73,68.8-166.09C152.96,24.43,211.95,0,274.69,0c62.74,0,121.73,24.43,166.09,68.8 c44.36,44.36,68.8,103.35,68.8,166.09v68.77C509.57,307.79,506.22,311.15,502.07,311.15z" fill="#554a3d"/></g><g id="change1_7"><path d="M83.65,268.41c-4.14,0-7.5-3.36-7.5-7.5v-28c0-109.48,89.06-198.54,198.54-198.54c4.14,0,7.5,3.36,7.5,7.5 s-3.36,7.5-7.5,7.5c-101.2,0-183.54,82.34-183.54,183.54v28C91.15,265.05,87.79,268.41,83.65,268.41z" fill="#554a3d"/></g><g id="change1_2"><path d="M465.73,268.41c-4.14,0-7.5-3.36-7.5-7.5v-28c0-101.21-82.34-183.54-183.54-183.54 c-4.14,0-7.5-3.36-7.5-7.5s3.36-7.5,7.5-7.5c109.48,0,198.54,89.06,198.54,198.54v28C473.23,265.05,469.87,268.41,465.73,268.41z" fill="#554a3d"/></g></svg>